<svg width="346" height="258" viewBox="0 0 346 258" fill="none" xmlns="http://www.w3.org/2000/svg">
<path d="M345.54 226.833H0.46048V227.006H345.54V226.833Z" fill="#EBEBEB"/>
<path d="M310.963 237.938H296V238.11H310.963V237.938Z" fill="#EBEBEB"/>
<path d="M238.337 234.363H214.796V234.536H238.337V234.363Z" fill="#EBEBEB"/>
<path d="M304.903 231.534H274.17V231.707H304.903V231.534Z" fill="#EBEBEB"/>
<path d="M119.872 235.012H112.183V235.184H119.872V235.012Z" fill="#EBEBEB"/>
<path d="M106.034 235.012H79.5388V235.184H106.034V235.012Z" fill="#EBEBEB"/>
<path d="M65.3423 232.101H46.2249V232.273H65.3423V232.101Z" fill="#EBEBEB"/>
<path d="M164.028 196.053H30.7653C29.7214 196.051 28.7208 195.635 27.9832 194.896C27.2457 194.157 26.8314 193.156 26.8314 192.112V4.78227C26.8405 3.74429 27.2588 2.75181 27.9953 2.02041C28.7319 1.28901 29.7273 0.877755 30.7653 0.875977H164.028C165.073 0.875977 166.075 1.29117 166.815 2.03021C167.554 2.76926 167.969 3.77161 167.969 4.81678V192.112C167.969 193.157 167.554 194.159 166.815 194.898C166.075 195.638 165.073 196.053 164.028 196.053ZM30.7653 1.01401C29.7671 1.01584 28.8104 1.41365 28.1052 2.12014C27.4 2.82663 27.004 3.78406 27.004 4.78227V192.112C27.004 193.11 27.4 194.068 28.1052 194.774C28.8104 195.48 29.7671 195.878 30.7653 195.88H164.028C165.027 195.878 165.984 195.481 166.69 194.774C167.397 194.068 167.794 193.111 167.796 192.112V4.78227C167.794 3.78343 167.397 2.82601 166.69 2.11972C165.984 1.41343 165.027 1.01583 164.028 1.01401H30.7653Z" fill="#EBEBEB"/>
<path d="M313.316 196.053H180.046C179.002 196.051 178.001 195.635 177.262 194.896C176.523 194.158 176.108 193.156 176.106 192.112V4.78227C176.117 3.74366 176.536 2.75119 177.274 2.01998C178.012 1.28877 179.008 0.877735 180.046 0.875977H313.316C314.353 0.879568 315.346 1.29162 316.082 2.02283C316.817 2.75404 317.234 3.74548 317.243 4.78227V192.112C317.243 193.155 316.83 194.155 316.094 194.894C315.358 195.632 314.359 196.049 313.316 196.053ZM180.046 1.01401C179.048 1.01583 178.09 1.41343 177.384 2.11972C176.678 2.82601 176.28 3.78343 176.278 4.78227V192.112C176.28 193.111 176.678 194.068 177.384 194.774C178.09 195.481 179.048 195.878 180.046 195.88H313.316C314.315 195.878 315.272 195.481 315.979 194.774C316.685 194.068 317.082 193.111 317.084 192.112V4.78227C317.082 3.78343 316.685 2.82601 315.979 2.11972C315.272 1.41343 314.315 1.01583 313.316 1.01401H180.046Z" fill="#EBEBEB"/>
<path d="M149.583 101.556L149.893 92.4877L144.331 90.6657C144.092 87.5924 143.593 84.5448 142.84 81.5556L147.561 78.1048L144.358 69.5883L138.52 70.0576C137.135 67.3137 135.519 64.693 133.689 62.2243L136.711 57.1792L130.5 50.5468L125.282 53.2177C122.936 51.2122 120.429 49.4025 117.787 47.8069L118.629 42.0096L110.347 38.2551L106.552 42.6997C103.623 41.763 100.622 41.0705 97.5795 40.6292L96.1992 34.9492L87.1029 34.6387L85.3085 40.2082C82.2382 40.4496 79.1933 40.946 76.2053 41.6921L72.6993 36.999L64.1828 40.1806L64.6521 46.0194C61.9096 47.4248 59.2894 49.0569 56.8188 50.8988L51.7392 47.8069L45.0792 54.0183L47.7501 59.2635C45.7441 61.598 43.943 64.101 42.3669 66.7448L36.5764 65.8752L32.7944 74.1571L37.2666 77.9461C36.3232 80.8726 35.6306 83.8741 35.1961 86.9181L29.4471 88.3606L29.1365 97.4292L34.7268 99.2513C34.9581 102.323 35.4545 105.369 36.2107 108.354L31.49 111.805L34.6992 120.329L40.5379 119.859C41.9188 122.605 43.5352 125.226 45.3691 127.693L42.3393 132.738L48.5507 139.37L53.7683 136.699C56.1083 138.704 58.6107 140.512 61.2496 142.103L60.38 147.894L68.6619 151.655L72.4785 147.21C75.4067 148.156 78.4074 148.86 81.4505 149.315L82.8308 154.995L91.9271 155.306L93.7215 149.736C96.7937 149.492 99.8407 148.996 102.832 148.253L106.282 152.946L114.799 149.764L114.357 143.925C117.095 142.511 119.714 140.879 122.191 139.046L127.208 142.069L133.868 135.857L131.197 130.612C133.204 128.278 135.005 125.775 136.58 123.131L142.371 124L146.153 115.718L141.681 111.923C142.64 108.998 143.344 105.996 143.786 102.951L149.583 101.556ZM88.3038 130.936C81.1868 130.696 74.3011 128.35 68.5175 124.196C62.7339 120.041 58.3124 114.265 55.8123 107.597C53.3121 100.93 52.8456 93.6702 54.4718 86.7374C56.098 79.8045 59.7439 73.5097 64.9482 68.6493C70.1524 63.7888 76.6813 60.581 83.709 59.4316C90.7366 58.2823 97.9473 59.2431 104.429 62.1924C110.91 65.1417 116.372 69.9471 120.122 76.0006C123.872 82.0542 125.742 89.084 125.496 96.2008C125.169 105.738 121.067 114.756 114.092 121.269C107.118 127.783 97.8416 131.26 88.3038 130.936Z" fill="#EBEBEB"/>
<path d="M304.82 71.5614L307.105 69.4288L306.2 67.6275C306.89 66.8203 307.511 65.9569 308.057 65.0463L310.058 65.343L311.349 62.4858L309.817 61.1814C310.147 60.1711 310.389 59.1344 310.542 58.0826L312.509 57.5926L312.605 54.4592L310.686 53.8381C310.602 52.7769 310.431 51.7244 310.176 50.691L311.798 49.4832L310.693 46.55L308.685 46.7088C308.201 45.7628 307.64 44.8579 307.008 44.0033L308.05 42.278L305.904 39.9866L304.109 40.9045C303.301 40.2164 302.438 39.5955 301.528 39.048L301.818 37.0466L298.968 35.7422L297.656 37.2812C296.644 36.966 295.608 36.7352 294.558 36.591L294.067 34.631L290.934 34.5137L290.306 36.4461C289.249 36.5269 288.201 36.6978 287.173 36.9568L285.972 35.335L283.032 36.4323L283.198 38.4476C282.249 38.9272 281.344 39.4883 280.492 40.1247L278.753 39.0825L276.462 41.2151L277.352 42.975C276.657 43.7798 276.034 44.6435 275.488 45.5562L273.494 45.2594L272.196 48.1167L273.735 49.428C273.416 50.4367 273.185 51.4712 273.045 52.5199L271.071 53.0099L270.975 56.1432L272.9 56.7644C272.979 57.8258 273.147 58.8786 273.404 59.9115L271.775 61.1124L272.88 64.0455L274.895 63.8937C275.379 64.8397 275.94 65.7445 276.572 66.5991L275.53 68.3245L277.676 70.6158L279.471 69.6979C280.277 70.3883 281.141 71.0093 282.052 71.5545L281.755 73.549L284.612 74.8534L285.924 73.3213C286.937 73.6332 287.973 73.864 289.022 74.0114L289.512 75.9715L292.646 76.0888L293.274 74.1563C294.331 74.076 295.379 73.9052 296.407 73.6456L297.608 75.2675L300.548 74.1702L300.389 72.1549C301.335 71.6746 302.238 71.1135 303.088 70.4778L304.82 71.5614ZM288.519 58.3586C287.916 57.7128 287.518 56.9028 287.376 56.031C287.234 55.1592 287.353 54.2648 287.72 53.4609C288.086 52.657 288.682 51.9798 289.433 51.515C290.184 51.0502 291.057 50.8185 291.939 50.8494C292.822 50.8804 293.676 51.1724 294.393 51.6886C295.11 52.2049 295.657 52.9221 295.966 53.7496C296.275 54.5771 296.332 55.4777 296.129 56.3374C295.926 57.1972 295.473 57.9774 294.827 58.5795C294.398 58.984 293.893 59.2993 293.341 59.5073C292.789 59.7154 292.202 59.8119 291.613 59.7914C291.024 59.7708 290.444 59.6336 289.908 59.3877C289.373 59.1418 288.891 58.792 288.491 58.3586H288.519Z" fill="#EBEBEB"/>
<path d="M221.311 164.678L214.175 159.743C213.475 157.173 212.513 154.683 211.304 152.31L213.133 145.132L202.78 134.048L195.492 135.38C193.206 134.011 190.784 132.88 188.266 132.006L183.835 124.545L168.652 124.027L163.724 131.164C161.158 131.863 158.669 132.822 156.298 134.028L149.121 132.199L138.037 142.551L139.369 149.825C138 152.116 136.871 154.543 136.001 157.065L128.54 161.496L128.022 176.68L135.166 181.607C135.853 184.191 136.813 186.694 138.03 189.075L136.18 196.19L146.532 207.274L153.772 205.949C156.076 207.321 158.513 208.454 161.046 209.331L165.47 216.778L180.654 217.302L185.575 210.166C188.164 209.467 190.676 208.505 193.07 207.295L200.206 209.117L211.297 198.765L209.965 191.49C211.338 189.199 212.466 186.77 213.333 184.244L220.793 179.813L221.311 164.678ZM174.07 187.722C170.699 187.607 167.438 186.495 164.699 184.526C161.961 182.558 159.867 179.822 158.683 176.664C157.5 173.506 157.279 170.067 158.049 166.784C158.819 163.5 160.546 160.519 163.01 158.216C165.475 155.914 168.567 154.394 171.895 153.849C175.223 153.303 178.639 153.757 181.709 155.153C184.779 156.548 187.367 158.823 189.145 161.689C190.922 164.555 191.81 167.884 191.696 171.255C191.538 175.776 189.592 180.049 186.286 183.136C182.98 186.224 178.584 187.873 174.063 187.722H174.07Z" fill="#EBEBEB"/>
<path d="M237.564 121.654H237.516L225.562 121.247C225.32 121.242 225.083 121.177 224.873 121.056C224.663 120.935 224.487 120.763 224.362 120.556L221.139 115.139C219.401 114.503 217.721 113.723 216.114 112.806L210.959 113.696C210.718 113.74 210.471 113.723 210.239 113.646C210.008 113.568 209.799 113.434 209.634 113.255L201.469 104.517C201.298 104.336 201.176 104.114 201.115 103.872C201.055 103.63 201.058 103.377 201.124 103.137L202.428 98.0228C201.62 96.3656 200.96 94.6404 200.454 92.8673L195.258 89.2785C195.056 89.1401 194.893 88.953 194.783 88.7346C194.673 88.5162 194.62 88.2736 194.63 88.0293L195.037 76.0757C195.045 75.8344 195.112 75.5987 195.232 75.3894C195.353 75.18 195.522 75.0034 195.727 74.8749L201.158 71.6518C201.785 69.9187 202.563 68.2443 203.484 66.6482L202.532 61.4513C202.487 61.21 202.504 60.9614 202.582 60.7286C202.659 60.4957 202.794 60.2861 202.974 60.1193L211.711 51.9616C211.892 51.7896 212.113 51.667 212.355 51.6053C212.597 51.5437 212.85 51.5452 213.091 51.6096L218.226 52.9209C219.879 52.1124 221.599 51.4496 223.368 50.9402L226.957 45.7433C227.09 45.5369 227.276 45.3698 227.496 45.2594C227.715 45.149 227.96 45.0992 228.206 45.1152L240.152 45.5293C240.395 45.5345 240.633 45.6003 240.844 45.7209C241.055 45.8414 241.232 46.0128 241.36 46.2195L244.583 51.6441C246.308 52.2774 247.975 53.0578 249.566 53.9769L254.784 53.0176C255.024 52.9729 255.272 52.9901 255.503 53.0673C255.735 53.1446 255.943 53.2794 256.109 53.4593L264.273 62.1967C264.444 62.3784 264.565 62.6005 264.625 62.842C264.685 63.0836 264.683 63.3365 264.618 63.577L263.307 68.7048C264.116 70.3587 264.781 72.0789 265.295 73.8465L270.485 77.4353C270.686 77.5737 270.85 77.7608 270.959 77.9792C271.069 78.1976 271.122 78.4402 271.113 78.6845L270.706 90.6312C270.697 90.8734 270.63 91.11 270.51 91.3205C270.39 91.531 270.22 91.7089 270.016 91.8389L264.584 95.062C263.953 96.7912 263.175 98.4629 262.258 100.059L263.211 105.263C263.255 105.503 263.238 105.75 263.161 105.982C263.084 106.214 262.949 106.422 262.769 106.588L253.976 114.752C253.795 114.924 253.573 115.045 253.331 115.106C253.09 115.166 252.836 115.163 252.596 115.097L247.489 113.793C245.825 114.598 244.095 115.26 242.319 115.774L238.765 120.964C238.637 121.168 238.461 121.339 238.251 121.459C238.042 121.579 237.806 121.646 237.564 121.654ZM226.46 118.362L236.812 118.714L240.263 113.751C240.454 113.462 240.747 113.255 241.084 113.172C243.026 112.641 244.91 111.917 246.709 111.012C247.022 110.86 247.379 110.824 247.716 110.908L252.548 112.143L260.139 105.069L259.27 100.079C259.203 99.7307 259.267 99.3695 259.449 99.0649C260.474 97.3559 261.318 95.5449 261.968 93.661C262.078 93.3194 262.309 93.0298 262.617 92.8466L267.814 89.7685L268.166 79.4161L263.197 75.9653C262.935 75.7866 262.739 75.5273 262.638 75.2268C262.638 75.1923 262.638 75.1509 262.638 75.1095C262.106 73.2019 261.385 71.3522 260.484 69.5882C260.325 69.2725 260.285 68.9094 260.374 68.5668L261.616 63.6805L254.542 56.0888L249.58 56.9998C249.233 57.0626 248.876 56.9989 248.572 56.8203C246.86 55.7932 245.047 54.9445 243.161 54.2874C243.053 54.2528 242.949 54.2065 242.851 54.1494C242.652 54.0253 242.486 53.8548 242.368 53.6525L239.255 48.4418L228.903 48.0829L225.452 53.059C225.246 53.3507 224.943 53.5588 224.596 53.6456C222.674 54.1708 220.81 54.89 219.034 55.792C218.72 55.9518 218.359 55.9911 218.019 55.9024L213.133 54.6601L205.541 61.7342L206.452 66.6827C206.506 66.9948 206.46 67.3161 206.321 67.6006L206.252 67.7179C205.225 69.4334 204.381 71.2515 203.733 73.1426C203.618 73.4668 203.394 73.7405 203.098 73.9155L197.901 77.0005L197.549 87.3529L202.525 90.8037C202.809 90.9978 203.014 91.2865 203.105 91.6181C203.622 93.5561 204.341 95.4344 205.251 97.2222C205.3 97.324 205.34 97.4303 205.368 97.5396C205.42 97.7668 205.42 98.0027 205.368 98.2298L204.126 103.061L211.2 110.653L216.128 109.749C216.472 109.686 216.828 109.749 217.129 109.928C218.854 110.953 220.678 111.802 222.574 112.461C222.916 112.562 223.205 112.792 223.382 113.103L226.46 118.362ZM232.857 105.269C232.602 105.269 232.347 105.269 232.091 105.269C226.354 105.168 220.889 102.805 216.885 98.6947C212.882 94.5841 210.664 89.0585 210.714 83.3206C210.765 77.5827 213.08 72.097 217.155 68.0574C221.23 64.0178 226.736 61.7514 232.474 61.7514C238.212 61.7514 243.718 64.0178 247.794 68.0574C251.869 72.097 254.184 77.5827 254.234 83.3206C254.285 89.0585 252.067 94.5841 248.063 98.6947C244.06 102.805 238.595 105.168 232.857 105.269ZM232.857 64.488C227.844 64.5744 223.067 66.6379 219.568 70.2292C216.068 73.8204 214.129 78.6487 214.172 83.6629C214.215 88.6771 216.237 93.4713 219.798 97.0017C223.359 100.532 228.171 102.513 233.185 102.513C238.2 102.513 243.011 100.532 246.572 97.0017C250.133 93.4713 252.155 88.6771 252.198 83.6629C252.242 78.6487 250.302 73.8204 246.803 70.2292C243.303 66.6379 238.527 64.5744 233.513 64.488H232.857Z" fill="#EBEBEB"/>
<path d="M265.095 35.6055L260.139 34.2804L258.814 29.325L260.754 27.3926L262.796 31.6233L267.034 33.673L265.095 35.6055Z" fill="#E0E0E0"/>
<path d="M265.398 32.2928C265.613 32.0784 265.783 31.824 265.899 31.5439C266.015 31.2639 266.074 30.9637 266.074 30.6606C266.074 30.3574 266.015 30.0573 265.899 29.7772C265.783 29.4972 265.613 29.2427 265.398 29.0283C265.184 28.814 264.93 28.644 264.649 28.528C264.369 28.412 264.069 28.3523 263.766 28.3523C263.463 28.3523 263.163 28.412 262.883 28.528C262.603 28.644 262.348 28.814 262.134 29.0283L264.598 25.3291L267.897 26.9993L268.621 30.4501L265.398 32.2928Z" fill="#E0E0E0"/>
<path d="M260.36 27.7923L263.99 24.1621L268.932 25.4803L270.264 30.4287L266.634 34.059L261.685 32.727L260.36 27.7923ZM266.951 30.76C267.274 30.4366 267.494 30.0246 267.583 29.5762C267.672 29.1278 267.626 28.663 267.451 28.2407C267.276 27.8184 266.98 27.4574 266.6 27.2034C266.22 26.9495 265.773 26.814 265.316 26.814C264.858 26.814 264.411 26.9495 264.031 27.2034C263.651 27.4574 263.355 27.8184 263.18 28.2407C263.005 28.663 262.959 29.1278 263.048 29.5762C263.137 30.0246 263.357 30.4366 263.68 30.76C264.117 31.1889 264.706 31.428 265.318 31.4255C265.931 31.4229 266.518 31.1788 266.951 30.7462V30.76Z" fill="#F0F0F0"/>
<path d="M62.7266 167.694L65.3837 166.977L66.0945 164.319L65.0593 163.284L63.9619 165.555L61.6844 166.652L62.7266 167.694Z" fill="#E0E0E0"/>
<path d="M62.5747 165.913C62.367 165.676 62.2573 165.369 62.2677 165.054C62.2782 164.739 62.408 164.44 62.6309 164.217C62.8538 163.994 63.1531 163.864 63.4682 163.854C63.7833 163.843 64.0905 163.953 64.3277 164.16L63.0095 162.18L61.1944 163.063L60.8079 164.927L62.5747 165.913Z" fill="#E0E0E0"/>
<path d="M65.2664 163.491L63.3201 161.545L60.663 162.235L59.9728 164.892L61.8846 166.859L64.5417 166.169L65.2664 163.491ZM61.7327 165.085C61.6048 164.973 61.5012 164.836 61.4284 164.683C61.3556 164.529 61.3151 164.362 61.3095 164.192C61.3039 164.022 61.3332 163.853 61.3956 163.694C61.4581 163.536 61.5524 163.393 61.6727 163.272C61.7929 163.152 61.9366 163.058 62.0948 162.995C62.2529 162.933 62.4223 162.904 62.5922 162.909C62.7622 162.915 62.9292 162.955 63.0829 163.028C63.2366 163.101 63.3737 163.204 63.4857 163.332C63.6934 163.57 63.8031 163.877 63.7927 164.192C63.7822 164.507 63.6524 164.806 63.4295 165.029C63.2066 165.252 62.9073 165.382 62.5922 165.392C62.2772 165.403 61.9699 165.293 61.7327 165.085Z" fill="#F0F0F0"/>
<path d="M53.1609 22.0361L55.3695 24.2446C55.6457 24.5161 56.0174 24.6682 56.4047 24.6682C56.7919 24.6682 57.1637 24.5161 57.4399 24.2446C57.7097 23.9676 57.8607 23.5961 57.8607 23.2094C57.8607 22.8227 57.7097 22.4512 57.4399 22.1742L55.2383 19.9725C54.9613 19.7027 54.5898 19.5518 54.2031 19.5518C53.8164 19.5518 53.4449 19.7027 53.1678 19.9725C52.8976 20.2475 52.7455 20.6173 52.7442 21.0029C52.7429 21.3885 52.8925 21.7593 53.1609 22.0361Z" fill="#F0F0F0"/>
<path d="M51.6081 16.5498C52.1844 16.3895 52.7949 16.401 53.3648 16.5829C53.9346 16.7648 54.439 17.1092 54.8158 17.5737C55.1927 18.0382 55.4257 18.6026 55.4863 19.1977C55.5469 19.7928 55.4324 20.3926 55.1568 20.9235C54.8812 21.4544 54.4566 21.8933 53.9351 22.1863C53.4136 22.4793 52.8179 22.6136 52.2212 22.5727C51.6244 22.5319 51.0525 22.3177 50.5758 21.9564C50.0991 21.595 49.7383 21.1024 49.5376 20.5389C49.4102 20.1411 49.3628 19.722 49.398 19.3057C49.4333 18.8895 49.5505 18.4843 49.7429 18.1136C49.9353 17.7428 50.1992 17.4138 50.5193 17.1454C50.8394 16.877 51.2095 16.6746 51.6081 16.5498Z" fill="#E0E0E0"/>
<path d="M49.2062 20.1697L49.5259 21.0596L56.0861 18.7029L55.7664 17.8131L49.2062 20.1697Z" fill="#F0F0F0"/>
<path d="M173 257.999C246.904 257.999 306.815 254.501 306.815 250.187C306.815 245.872 246.904 242.374 173 242.374C99.0961 242.374 39.1852 245.872 39.1852 250.187C39.1852 254.501 99.0961 257.999 173 257.999Z" fill="#F5F5F5"/>
<path d="M60.3111 46.1844C59.6209 43.1408 59.9246 40.5872 61.2359 38.503C62.5472 36.4187 64.6867 35.0522 67.7303 34.362C70.7739 33.6718 73.4034 33.9479 75.46 35.2316C77.5167 36.5153 78.9108 38.6824 79.601 41.6501C80.0882 43.4818 80.1285 45.4037 79.7183 47.2542C79.3171 48.791 78.4693 50.1743 77.282 51.2295C75.8719 52.4167 74.1794 53.2201 72.3681 53.5622C70.5926 54.0336 68.7333 54.0973 66.9297 53.7485C65.3618 53.3675 63.9438 52.5263 62.8577 51.333C61.5603 49.8777 60.6803 48.0988 60.3111 46.1844ZM66.067 44.9007C66.4949 46.7779 67.1505 48.0478 68.0339 48.7104C68.4899 49.0145 69.0027 49.2232 69.5415 49.324C70.0802 49.4248 70.6338 49.4156 71.1689 49.2969C71.704 49.1783 72.2096 48.9527 72.6552 48.6337C73.1009 48.3146 73.4774 47.9088 73.7622 47.4405C74.2592 46.4812 74.2661 44.9559 73.7968 42.8786C73.3965 41.1256 72.75 39.9247 71.8574 39.2759C71.408 38.9534 70.892 38.7357 70.3473 38.639C69.8027 38.5422 69.2433 38.5689 68.7103 38.7169C68.1768 38.8168 67.673 39.0364 67.2366 39.3592C66.8003 39.6819 66.4429 40.0995 66.1912 40.5803C65.6805 41.5949 65.6322 42.9752 66.067 44.9007Z" fill="#D2CBCB"/>
<path d="M82.3064 43.907C82.0612 42.9665 82.0175 41.9848 82.1781 41.0261C82.3386 40.0675 82.6999 39.1537 83.2381 38.3443C83.8415 37.4845 84.6088 36.7523 85.4959 36.1897C86.3829 35.6272 87.3724 35.2453 88.4074 35.0661C91.1082 34.4541 93.3259 34.7739 95.0605 36.0254C96.5203 37.157 97.5128 38.7862 97.8488 40.6024C98.1848 42.4186 97.8409 44.295 96.8825 45.874C95.8059 47.5165 94.0529 48.6116 91.6235 49.1591C89.7519 49.6824 87.755 49.5209 85.9918 48.7036C85.049 48.2428 84.2256 47.57 83.5862 46.7378C82.9468 45.9056 82.5088 44.9367 82.3064 43.907ZM87.4895 42.713C87.6291 43.6775 88.1001 44.5632 88.8215 45.2183C89.1075 45.4348 89.4371 45.5863 89.7876 45.6626C90.1381 45.7388 90.5009 45.7378 90.851 45.6596C91.201 45.5815 91.5298 45.428 91.8146 45.21C92.0994 44.992 92.3333 44.7145 92.5 44.397C92.8614 43.47 92.8955 42.4474 92.5967 41.4984C92.4515 40.5566 91.9859 39.6937 91.2785 39.0552C91.0039 38.8326 90.6818 38.6764 90.3371 38.5986C89.9923 38.5208 89.6343 38.5235 89.2908 38.6066C88.9327 38.6808 88.5962 38.8356 88.3068 39.0592C88.0174 39.2828 87.7828 39.5694 87.6206 39.8972C87.2489 40.7916 87.2025 41.788 87.4895 42.713Z" fill="#D2CBCB"/>
<path d="M103.004 51.6509L98.7736 33.0166L103.605 31.9123L104.06 33.9069C104.401 33.1114 104.896 32.3913 105.516 31.7881C106.197 31.2101 107.01 30.8095 107.884 30.6217C108.69 30.4023 109.54 30.3896 110.353 30.5851C111.166 30.7805 111.916 31.1776 112.535 31.7398C113.899 33.0149 114.825 34.6892 115.179 36.5226C115.689 38.7656 115.538 40.6014 114.737 42.0439C114.356 42.7335 113.83 43.3321 113.195 43.7981C112.56 44.264 111.831 44.5863 111.058 44.7424C110.314 44.9188 109.543 44.9492 108.788 44.8321C108.063 44.7052 107.372 44.4303 106.759 44.0246L108.222 50.4638L103.004 51.6509ZM105.496 38.6345C105.622 39.4964 106.053 40.2847 106.71 40.8568C106.974 41.0585 107.28 41.1981 107.605 41.265C107.93 41.332 108.266 41.3245 108.588 41.2433C108.886 41.1834 109.167 41.0541 109.407 40.8659C109.647 40.6777 109.839 40.4358 109.968 40.1597C110.261 39.296 110.261 38.3595 109.968 37.4957C109.842 36.6294 109.426 35.8314 108.788 35.232C108.551 35.0354 108.272 34.8959 107.973 34.8241C107.674 34.7523 107.362 34.7502 107.062 34.8179C106.745 34.8864 106.448 35.0256 106.192 35.2251C105.936 35.4247 105.729 35.6795 105.585 35.9705C105.248 36.8212 105.216 37.7629 105.496 38.6345Z" fill="#D2CBCB"/>
<path d="M117.394 39.0402L122.418 37.3908C122.686 37.8765 123.102 38.2636 123.605 38.495C124.148 38.652 124.721 38.6645 125.27 38.5314C125.818 38.3982 126.322 38.1239 126.732 37.7358C126.846 37.614 126.93 37.4662 126.974 37.305C127.019 37.1439 127.023 36.9743 126.987 36.811C126.946 36.6242 126.849 36.454 126.71 36.3224C126.571 36.1908 126.396 36.1038 126.207 36.0725C125.428 35.9869 124.641 35.9869 123.861 36.0725C122.552 36.1839 121.236 36.1839 119.927 36.0725C119.161 35.9613 118.442 35.6333 117.856 35.127C117.232 34.5861 116.8 33.8563 116.627 33.0481C116.454 32.2399 116.549 31.3973 116.897 30.6479C117.3 29.846 117.925 29.1773 118.698 28.7224C119.799 28.0969 120.995 27.6563 122.239 27.418C123.426 27.0958 124.653 26.947 125.883 26.9763C126.655 27.026 127.404 27.2628 128.064 27.6664C128.767 28.141 129.364 28.7568 129.817 29.4746L124.986 31.0689C124.805 30.7093 124.505 30.4238 124.137 30.2614C123.633 30.0813 123.087 30.0573 122.57 30.1924C122.113 30.2561 121.689 30.4669 121.362 30.7928C121.259 30.9039 121.184 31.0388 121.144 31.1855C121.104 31.3323 121.101 31.4866 121.135 31.6348C121.172 31.798 121.258 31.9461 121.381 32.0594C121.504 32.1728 121.659 32.2461 121.825 32.2698C122.596 32.3593 123.377 32.3431 124.144 32.2215C125.475 32.0286 126.825 32.01 128.161 32.1662C129.001 32.2849 129.788 32.6472 130.424 33.2084C131 33.7303 131.4 34.4173 131.57 35.1753C131.747 35.9882 131.682 36.8351 131.384 37.6116C131.019 38.5309 130.383 39.3179 129.562 39.8684C128.351 40.6598 126.995 41.2017 125.572 41.4627C123.111 42.024 121.27 42.0723 120.051 41.6076C118.863 41.1332 117.909 40.2112 117.394 39.0402Z" fill="#D2CBCB"/>
<path d="M134.248 21.9736H139.914V26.3216L138.872 35.0659H135.366L134.248 26.3354V21.9736ZM134.524 36.3841H139.81V41.0634H134.524V36.3841Z" fill="#D2CBCB"/>
<path d="M89.27 81.3317H89.1458C86.0401 80.1239 84.1836 78.9506 83.2173 77.5358C82.461 77.6791 81.6786 77.5726 80.9881 77.2321C80.1793 76.8363 79.5084 76.2063 79.0626 75.4239C78.8282 75.6038 78.5523 75.7215 78.2603 75.7661C77.9683 75.8107 77.6698 75.7809 77.3924 75.6793C76.5418 75.361 75.816 74.778 75.3219 74.016C75.0129 74.2462 74.6287 74.3521 74.2453 74.3128C72.1748 74.1471 69.4142 70.0614 69.214 65.7134C69.212 65.6216 69.2452 65.5326 69.3068 65.4645C69.3684 65.3965 69.4538 65.3547 69.5453 65.3476C69.5906 65.3458 69.6359 65.3529 69.6784 65.3685C69.721 65.3842 69.7601 65.4081 69.7934 65.4388C69.8268 65.4696 69.8537 65.5067 69.8727 65.5478C69.8917 65.589 69.9024 65.6336 69.9042 65.6789C70.0974 69.8198 72.7407 73.4984 74.3074 73.6226C74.4214 73.6354 74.5368 73.6256 74.6469 73.5936C74.7571 73.5616 74.8598 73.5081 74.9492 73.4363C74.4095 72.4523 74.0705 71.3709 73.952 70.2549C73.8336 69.1388 73.9379 68.0104 74.2591 66.935C74.8526 64.8645 75.3771 64.0501 76.0121 64.1744C77.1992 64.4711 77.0404 69.0055 76.4124 71.9662C76.3172 72.5002 76.1204 73.011 75.8326 73.4708C76.2395 74.153 76.8537 74.6874 77.5856 74.996C77.7807 75.0703 77.993 75.087 78.1973 75.0442C78.4016 75.0014 78.5894 74.9008 78.7382 74.7545C78.1999 73.4225 78.048 71.6004 78.821 69.2815C79.7872 66.2241 80.2013 66.1413 80.4153 66.0861C80.4958 66.0692 80.5793 66.0744 80.6571 66.1011C80.7348 66.1278 80.8039 66.1751 80.857 66.2379C81.4988 66.9626 80.7328 71.7109 79.9322 74.0574C79.8384 74.3398 79.7085 74.6089 79.5457 74.858C79.916 75.6045 80.5192 76.2101 81.2642 76.5834C81.7528 76.821 82.2961 76.9235 82.8377 76.8802C82.7756 76.749 82.7204 76.6179 82.6652 76.4799C82.12 74.996 82.3891 73.2913 83.4865 71.2485C84.2112 69.9027 84.8047 69.2677 85.3568 69.2677C85.5034 69.2697 85.6463 69.3136 85.7686 69.3944C85.891 69.4751 85.9876 69.5892 86.047 69.7232C86.6474 70.8344 86.2126 74.4991 85.0255 76.3211C84.7476 76.7388 84.3611 77.0729 83.9075 77.2874C84.8323 78.502 86.5922 79.5718 89.4288 80.6622C89.4713 80.6776 89.5103 80.7013 89.5435 80.7319C89.5767 80.7626 89.6035 80.7996 89.6221 80.8408C89.6408 80.882 89.651 80.9265 89.6522 80.9717C89.6533 81.0169 89.6454 81.0618 89.6289 81.1039C89.6021 81.1758 89.5525 81.237 89.4877 81.2781C89.4229 81.3192 89.3465 81.338 89.27 81.3317ZM85.3499 69.9648C85.3499 69.9648 84.9565 69.9648 84.0869 71.5867C83.0862 73.4363 82.8308 74.9615 83.307 76.2452C83.3648 76.4042 83.434 76.5587 83.5141 76.7076C83.8879 76.5532 84.2058 76.2883 84.4251 75.9484C85.3913 74.4715 85.8537 71.4348 85.4948 70.2477C85.4465 70.0062 85.3499 69.9648 85.3499 69.9648ZM80.3946 67.0592C80.021 67.845 79.7117 68.6597 79.4698 69.4955C78.9405 70.9439 78.8492 72.5161 79.2075 74.016L79.2696 73.8366C79.9944 71.649 80.3807 69.3635 80.4153 67.0592H80.3946ZM75.8533 64.8852C75.736 64.9887 75.3978 65.4235 74.9216 67.1075C74.3584 68.9974 74.5361 71.0309 75.4185 72.7944C75.5602 72.4859 75.6644 72.1615 75.7291 71.8282C76.4676 68.4395 76.2605 65.3752 75.874 64.8852H75.8533Z" fill="#D2CBCB"/>
<path d="M115.51 117.51C114.406 117.521 113.32 117.237 112.363 116.689C112.284 116.641 112.227 116.565 112.204 116.476C112.18 116.387 112.193 116.293 112.238 116.213C112.261 116.174 112.292 116.14 112.328 116.113C112.364 116.086 112.405 116.066 112.448 116.055C112.492 116.044 112.538 116.042 112.582 116.049C112.627 116.056 112.669 116.072 112.708 116.095C115.172 117.538 118.353 116.53 119.009 115.474C119.056 115.408 119.09 115.333 119.108 115.254C119.125 115.174 119.127 115.092 119.112 115.012C117.852 115.084 116.605 114.729 115.572 114.004C113.812 112.907 113.674 112.576 113.688 112.313C113.691 112.238 113.715 112.165 113.756 112.102C113.797 112.039 113.855 111.988 113.922 111.954C114.613 111.609 117.725 113.038 119.023 113.894C119.178 113.997 119.322 114.117 119.451 114.253C119.96 114.137 120.42 113.861 120.762 113.466C120.954 113.24 121.094 112.973 121.169 112.686H121.031C119.927 112.796 118.823 112.32 117.642 111.23C116.828 110.484 116.517 109.967 116.621 109.56C116.652 109.445 116.716 109.342 116.804 109.263C116.892 109.183 117.001 109.13 117.118 109.111C118.07 108.869 120.431 109.877 121.39 110.933C121.604 111.163 121.756 111.443 121.832 111.747C122.736 111.326 123.688 110.367 124.813 108.8C124.839 108.763 124.873 108.731 124.911 108.707C124.95 108.683 124.993 108.666 125.037 108.658C125.082 108.651 125.128 108.652 125.173 108.662C125.217 108.672 125.259 108.691 125.296 108.718C125.37 108.772 125.42 108.852 125.436 108.942C125.451 109.033 125.431 109.125 125.379 109.201C124.075 111.023 122.984 112.058 121.894 112.479C121.837 112.989 121.628 113.47 121.293 113.859C120.896 114.321 120.373 114.659 119.789 114.832C119.822 114.997 119.821 115.167 119.788 115.331C119.755 115.496 119.69 115.652 119.596 115.792C119.016 116.779 117.346 117.51 115.51 117.51ZM114.896 112.72C115.13 112.893 115.462 113.121 115.938 113.411C116.68 113.911 117.532 114.224 118.422 114.322C117.311 113.656 116.128 113.118 114.896 112.72ZM117.304 109.787C117.503 110.161 117.778 110.488 118.112 110.747C119.133 111.692 120.065 112.127 120.962 112.017H121.183C121.134 111.802 121.029 111.605 120.879 111.444C119.913 110.353 117.787 109.677 117.304 109.787Z" fill="#D2CBCB"/>
<path d="M124.648 116.564L113.895 118.518L104.129 65.2236L83.383 68.9919L49.5652 129.036L53.1954 148.85L96.5719 140.975L99.5396 157.18L120.286 153.398L117.318 137.193L128.071 135.24L124.648 116.564ZM70.2285 126.482L88.1727 95.0316L93.1763 122.32L70.2285 126.482Z" fill="#BE0D0D"/>
<path d="M211.255 61.6076C210.929 58.2574 210.187 54.9607 209.047 51.7936C207.874 48.7597 206.245 45.9227 204.216 43.3805C201.814 40.4229 198.831 37.9895 195.451 36.2305C191.77 34.2106 186.888 32.805 180.806 32.0136C168.176 30.3665 158.334 32.6072 151.281 38.7358C144.227 44.8644 139.58 56.5971 137.34 73.9338C136.445 80.4131 136.214 86.9667 136.649 93.4929C137.109 99.4743 138.209 104.289 139.948 107.938C142.161 112.858 145.653 117.096 150.059 120.209C154.416 123.269 160.398 125.291 168.003 126.275C181.521 128.038 191.545 125.44 198.073 118.484C204.602 111.527 208.927 99.771 211.048 83.2165C211.991 76.0484 212.061 68.7924 211.255 61.6076Z" fill="#BE0D0D"/>
<path d="M174.222 119.187C172.558 119.132 170.771 118.98 168.969 118.745C162.648 117.924 157.761 116.323 154.435 113.99C151.117 111.648 148.494 108.452 146.843 104.742L146.808 104.666C145.483 101.906 144.614 97.9372 144.234 92.9335C143.832 86.9232 144.045 80.8875 144.869 74.9204C147.333 55.7892 152.419 47.8041 156.25 44.4775C160.722 40.5988 166.761 38.8458 174.698 39.1219C176.327 39.1771 178.052 39.322 179.826 39.5498C184.919 40.2399 188.956 41.3442 191.814 42.904C194.283 44.1754 196.468 45.9339 198.239 48.0732C199.788 50.0055 201.033 52.1629 201.931 54.471C202.848 57.0447 203.442 59.7223 203.698 62.4423C204.434 69.0332 204.367 75.689 203.498 82.2637C201.586 97.1297 197.887 107.579 192.511 113.321C188.522 117.572 182.538 119.532 174.215 119.215L174.222 119.187Z" fill="#D2CBCB"/>
<path d="M187.728 61.8076L187.818 59.1919L186.21 58.6674C186.141 57.7827 185.998 56.9054 185.782 56.0448L187.162 55.0372L186.237 52.5802L184.553 52.7182C184.157 51.9286 183.695 51.1737 183.173 50.4614L184.043 49.0052L182.248 47.0935L180.744 47.8664C180.07 47.2876 179.35 46.7659 178.59 46.3067L178.832 44.6365L176.444 43.5529L175.353 44.8366C174.509 44.563 173.643 44.3598 172.765 44.2293L172.358 42.5936L169.736 42.5039L169.218 44.1051C168.334 44.1759 167.456 44.319 166.595 44.533L165.581 43.1527L163.124 44.0706L163.262 45.7546C162.472 46.1509 161.717 46.6126 161.005 47.1349L159.556 46.2584L157.637 48.0459L158.41 49.5573C157.83 50.2301 157.31 50.953 156.857 51.7175L155.187 51.4622L154.097 53.8501L155.387 54.9406C155.107 55.7855 154.904 56.654 154.78 57.5356L153.137 57.9496L153.048 60.5584L154.656 61.083C154.723 61.9701 154.866 62.8498 155.083 63.7125L153.703 64.7132L154.628 67.1702L156.312 67.0321C156.704 67.824 157.166 68.5792 157.692 69.2889L156.816 70.7452L158.61 72.6569L160.115 71.8908C160.788 72.4674 161.508 72.9868 162.268 73.4437L162.02 75.1139L164.408 76.1974L165.505 74.9206C166.352 75.1927 167.22 75.3936 168.1 75.5211L168.507 77.1636L171.123 77.2534L171.64 75.6453C172.527 75.5779 173.407 75.4348 174.27 75.2174L175.271 76.5977L177.728 75.6798L177.596 74.0027C178.383 73.6013 179.138 73.1398 179.853 72.6224L181.303 73.492L183.221 71.7045L182.455 70.1931C183.033 69.5226 183.551 68.802 184.001 68.0398L185.671 68.2882L186.762 65.9003L185.478 64.8098C185.753 63.9661 185.954 63.1002 186.078 62.2217L187.728 61.8076ZM170.06 70.2759C168.016 70.2012 166.04 69.5226 164.381 68.3258C162.722 67.1289 161.455 65.4675 160.739 63.5512C160.024 61.6348 159.892 59.5495 160.361 57.5584C160.83 55.5673 161.878 53.7597 163.373 52.3637C164.868 50.9677 166.743 50.0459 168.761 49.7147C170.78 49.3834 172.851 49.6576 174.714 50.5025C176.577 51.3475 178.148 52.7254 179.228 54.4623C180.309 56.1992 180.85 58.2172 180.785 60.2617C180.741 61.6244 180.429 62.9651 179.866 64.2067C179.303 65.4484 178.5 66.5666 177.503 67.4971C176.507 68.4276 175.336 69.1521 174.059 69.6289C172.781 70.1058 171.422 70.3256 170.06 70.2759Z" fill="#BE0D0D"/>
<path opacity="0.3" d="M198.619 109.829L198.812 108.062L197.749 107.634C197.747 107.033 197.697 106.433 197.597 105.84L198.557 105.226L198.067 103.521H196.921C196.694 102.967 196.419 102.433 196.1 101.927L196.748 100.988L195.644 99.6078L194.588 100.05C194.16 99.6262 193.699 99.2385 193.208 98.8901L193.463 97.772L191.91 96.9162L191.096 97.7375C190.541 97.5092 189.969 97.3269 189.384 97.1923L189.191 96.0673L187.431 95.8672L186.996 96.93C186.397 96.9328 185.799 96.9883 185.209 97.0957L184.595 96.1156L182.89 96.6195V97.7651C182.335 97.9941 181.802 98.2713 181.296 98.5933L180.357 97.9032L178.977 99.0074L179.418 100.063C178.998 100.492 178.612 100.953 178.266 101.444L177.148 101.195L176.299 102.748L177.113 103.556C176.882 104.111 176.7 104.686 176.568 105.274L175.436 105.46L175.25 107.22L176.306 107.662C176.306 108.259 176.359 108.855 176.465 109.443L175.491 110.057L175.988 111.762H177.141C177.371 112.313 177.648 112.844 177.969 113.349L177.279 114.288L178.383 115.668L179.453 115.219C179.878 115.644 180.34 116.03 180.833 116.372L180.592 117.511L182.145 118.359L182.952 117.552C183.507 117.775 184.08 117.953 184.664 118.083L184.864 119.215L186.624 119.408L187.052 118.353C187.662 118.352 188.271 118.301 188.874 118.201L189.488 119.174L191.186 118.677V117.531C191.74 117.298 192.276 117.021 192.787 116.703L193.712 117.393L195.092 116.282L194.643 115.226C195.069 114.798 195.459 114.336 195.81 113.846L196.921 114.094L197.777 112.541L196.962 111.741C197.184 111.185 197.362 110.613 197.494 110.029L198.619 109.829ZM189.736 109.139C189.444 109.673 189 110.109 188.461 110.391C187.921 110.673 187.31 110.788 186.704 110.723C186.099 110.657 185.526 110.414 185.059 110.023C184.593 109.632 184.252 109.111 184.081 108.527C183.91 107.943 183.916 107.321 184.099 106.74C184.281 106.159 184.632 105.645 185.107 105.264C185.582 104.882 186.159 104.65 186.765 104.596C187.372 104.543 187.981 104.671 188.515 104.963C189.229 105.357 189.758 106.017 189.987 106.799C190.216 107.582 190.126 108.423 189.736 109.139Z" fill="#BE0D0D"/>
<path d="M208.398 80.001L206.328 78.5793C206.124 77.8402 205.847 77.1235 205.5 76.4398L206.024 74.3694L203.043 71.1739L200.972 71.5604C200.315 71.1694 199.622 70.8434 198.902 70.5873L197.625 68.434L193.256 68.2891L191.834 70.3595C191.094 70.5602 190.377 70.8378 189.695 71.1877L187.624 70.6563L184.429 73.6447L184.816 75.7152C184.419 76.369 184.093 77.063 183.842 77.7856L181.696 79.0624L181.544 83.4311L183.615 84.8529C183.815 85.5974 184.093 86.3191 184.443 87.0062L183.918 89.0766L186.9 92.2721L188.97 91.8925C189.627 92.2829 190.321 92.6088 191.041 92.8656L192.311 95.012L196.686 95.1638L198.101 93.0933C198.847 92.8908 199.571 92.6134 200.261 92.2652L202.332 92.7897L205.527 89.8082L205.148 87.7377C205.54 87.0815 205.866 86.388 206.121 85.6672L208.267 84.3905L208.398 80.001ZM194.781 86.6404C193.81 86.607 192.87 86.2864 192.081 85.719C191.292 85.1516 190.689 84.3629 190.348 83.4527C190.007 82.5425 189.944 81.5517 190.166 80.6055C190.389 79.6594 190.886 78.8003 191.597 78.1371C192.307 77.4739 193.199 77.0363 194.158 76.8797C195.117 76.723 196.101 76.8543 196.986 77.257C197.87 77.6596 198.616 78.3156 199.127 79.1419C199.639 79.9682 199.895 80.9276 199.861 81.899C199.814 83.2006 199.253 84.4307 198.301 85.3194C197.349 86.2082 196.083 86.6832 194.781 86.6404Z" fill="white"/>
<path d="M223.382 45.1278L223.74 44.2651C223.984 44.1276 224.215 43.9682 224.431 43.7889H225.231L226.17 42.4086L225.866 41.6701C225.982 41.4241 226.075 41.1676 226.142 40.904L226.832 40.2691L226.542 38.6472L225.673 38.2883C225.537 38.0436 225.377 37.8125 225.197 37.5982V36.7976L223.851 35.859L223.105 36.1695C222.833 36.0736 222.551 36.0087 222.263 35.9763L221.629 35.2861L220.014 35.576L219.648 36.4456C219.392 36.5784 219.149 36.7355 218.923 36.9149H218.129L217.191 38.2952L217.494 39.0337C217.402 39.3071 217.337 39.5892 217.301 39.8757L216.611 40.5175L216.901 42.1325L217.771 42.4914C217.902 42.7373 218.059 42.9687 218.24 43.1815V43.9752L219.62 44.9138L220.359 44.6102C220.635 44.6999 220.919 44.7623 221.208 44.7965L221.842 45.4867L223.382 45.1278ZM219.931 40.6556C219.865 40.2955 219.908 39.9241 220.054 39.5884C220.2 39.2528 220.442 38.968 220.75 38.77C221.058 38.5721 221.418 38.4699 221.784 38.4764C222.149 38.4829 222.505 38.5978 222.806 38.8065C223.106 39.0153 223.338 39.3086 223.472 39.6492C223.606 39.9898 223.636 40.3624 223.558 40.72C223.48 41.0776 223.297 41.4039 223.034 41.6578C222.77 41.9117 222.437 42.0817 222.077 42.1463C221.595 42.2309 221.099 42.1217 220.697 41.8425C220.295 41.5634 220.02 41.1368 219.931 40.6556Z" fill="#BE0D0D"/>
<path d="M204.478 40.5508L203.947 40.1022C205.086 38.6897 206.493 37.5168 208.088 36.6514L208.412 37.2587C206.895 38.0844 205.558 39.2035 204.478 40.5508Z" fill="#BE0D0D"/>
<path d="M209.986 36.6239L209.716 35.989C212.265 34.8814 215.052 34.4352 217.819 34.6915L217.75 35.3816C215.098 35.1317 212.427 35.5592 209.986 36.6239Z" fill="#BE0D0D"/>
<path d="M208.681 41.3991L208.115 41.0127C209.778 38.7673 212.198 37.2006 214.927 36.6025L215.058 37.2927C212.508 37.8497 210.244 39.3077 208.681 41.3991Z" fill="#BE0D0D"/>
<path d="M162.882 107.847C162.788 107.844 162.699 107.804 162.634 107.736L161.191 106.246C160.456 106.179 159.728 106.045 159.017 105.845L156.761 106.839C156.711 106.866 156.655 106.881 156.598 106.881C156.542 106.881 156.486 106.866 156.436 106.839L152.654 104.334C152.605 104.302 152.566 104.258 152.539 104.206C152.512 104.154 152.5 104.096 152.502 104.037V101.58C152.041 101.003 151.634 100.384 151.288 99.7306L149.348 98.9853C149.294 98.9642 149.246 98.9298 149.208 98.8851C149.171 98.8405 149.146 98.7871 149.134 98.7299L148.237 94.2853C148.225 94.2285 148.228 94.1697 148.245 94.1142C148.262 94.0587 148.292 94.0083 148.334 93.9678L149.824 92.5254C149.896 91.7906 150.03 91.0633 150.225 90.3514L149.231 88.0946C149.204 88.0448 149.189 87.9891 149.189 87.9324C149.189 87.8757 149.204 87.8199 149.231 87.7702L151.736 83.9881C151.767 83.9383 151.811 83.8979 151.864 83.8712C151.916 83.8444 151.974 83.8324 152.033 83.8363L154.49 83.8708C155.066 83.4069 155.685 83.0001 156.34 82.6561L157.092 80.7168C157.112 80.663 157.145 80.6151 157.188 80.5777C157.232 80.5402 157.284 80.5145 157.34 80.5028L161.785 79.6056C161.842 79.5931 161.901 79.5954 161.956 79.6123C162.012 79.6292 162.062 79.6602 162.102 79.7022L163.545 81.193C164.282 81.2603 165.012 81.3942 165.726 81.5933L167.976 80.5994C168.027 80.5723 168.083 80.558 168.141 80.558C168.199 80.558 168.256 80.5723 168.307 80.5994L172.082 83.1047C172.13 83.1383 172.169 83.1826 172.197 83.2342C172.224 83.2857 172.239 83.343 172.241 83.4015L172.199 85.8584C172.663 86.4357 173.072 87.0549 173.421 87.7081L175.353 88.4603C175.407 88.4802 175.455 88.5134 175.493 88.5569C175.53 88.6004 175.556 88.6526 175.567 88.7088L176.471 93.1534C176.482 93.2102 176.479 93.2687 176.462 93.324C176.445 93.3793 176.415 93.4297 176.375 93.4709L174.877 94.9202C174.808 95.653 174.674 96.3782 174.477 97.0873L175.471 99.3441C175.498 99.3951 175.512 99.452 175.512 99.5098C175.512 99.5676 175.498 99.6244 175.471 99.6754L173 103.423C172.968 103.47 172.924 103.508 172.874 103.535C172.823 103.561 172.767 103.575 172.71 103.575L170.246 103.54C169.668 103.998 169.052 104.404 168.404 104.755L167.651 106.694C167.631 106.749 167.596 106.797 167.552 106.835C167.507 106.872 167.453 106.898 167.396 106.908L162.951 107.847H162.882ZM158.997 105.086C159.029 105.08 159.061 105.08 159.093 105.086C159.839 105.303 160.604 105.444 161.378 105.507C161.461 105.517 161.538 105.553 161.599 105.611L162.979 107.06L167.051 106.239L167.782 104.348C167.816 104.271 167.875 104.208 167.948 104.168C168.637 103.812 169.287 103.384 169.887 102.892C169.951 102.838 170.032 102.811 170.115 102.816L172.51 102.85L174.801 99.3993L173.835 97.2047C173.808 97.1288 173.808 97.0458 173.835 96.97C174.049 96.2238 174.189 95.4588 174.256 94.6856C174.263 94.602 174.3 94.5236 174.36 94.4647L175.809 93.0844L174.988 89.0125L173.103 88.2809C173.023 88.2514 172.956 88.1922 172.917 88.1153C172.559 87.4268 172.131 86.777 171.64 86.1759C171.591 86.1128 171.564 86.0351 171.564 85.9551V83.5533L168.114 81.262L165.926 82.2282C165.848 82.2561 165.762 82.2561 165.684 82.2282C164.936 82.0122 164.169 81.8712 163.393 81.8072C163.31 81.7975 163.233 81.7611 163.172 81.7037L161.792 80.2544L157.72 81.0826L156.995 83.0012C156.966 83.0803 156.91 83.1464 156.836 83.1875C156.144 83.5431 155.492 83.9711 154.89 84.4643C154.86 84.4913 154.826 84.5119 154.788 84.5249C154.75 84.538 154.709 84.5432 154.669 84.5402L152.275 84.5057L149.976 87.9565L150.943 90.1512C150.965 90.1976 150.976 90.2483 150.976 90.2996C150.976 90.351 150.965 90.4016 150.943 90.448C150.738 91.1765 150.604 91.923 150.542 92.6772C150.536 92.761 150.499 92.8395 150.439 92.8981L148.989 94.2784L149.818 98.3503L151.695 99.0819C151.779 99.1167 151.847 99.1803 151.888 99.2613C152.244 99.9452 152.669 100.59 153.158 101.187C153.209 101.249 153.236 101.327 153.234 101.408V103.809L156.685 106.101L158.879 105.135C158.915 105.112 158.955 105.095 158.997 105.086ZM162.385 102.85C160.724 102.849 159.094 102.397 157.669 101.543C156.244 100.69 155.077 99.4658 154.292 98.0018C153.507 96.5378 153.133 94.8885 153.211 93.2291C153.288 91.5697 153.814 89.9622 154.731 88.5777C155.609 87.2494 156.817 86.1716 158.236 85.4499C159.656 84.7282 161.238 84.3872 162.828 84.4602C164.419 84.5333 165.963 85.0179 167.311 85.8667C168.658 86.7154 169.761 87.8993 170.514 89.3025C171.266 90.7057 171.642 92.2802 171.604 93.872C171.565 95.4638 171.114 97.0183 170.295 98.3837C169.476 99.749 168.316 100.878 166.93 101.661C165.543 102.444 163.978 102.854 162.385 102.85ZM155.311 88.9573C154.382 90.3589 153.89 92.0045 153.896 93.686C153.902 95.3675 154.407 97.0094 155.346 98.4042C156.285 99.7989 157.617 100.884 159.173 101.522C160.729 102.16 162.439 102.322 164.087 101.988C165.735 101.654 167.247 100.839 168.432 99.6461C169.617 98.453 170.421 96.9353 170.744 95.285C171.066 93.6347 170.892 91.9258 170.243 90.3744C169.594 88.8231 168.5 87.4989 167.099 86.5693C166.17 85.9473 165.127 85.5156 164.03 85.2989C162.933 85.0823 161.804 85.085 160.708 85.3071C159.612 85.5291 158.571 85.9659 157.644 86.5924C156.718 87.2189 155.925 88.0227 155.311 88.9573Z" fill="white"/>
<path d="M294.35 122.79L283.515 121.327L290.679 67.6254L269.781 64.8096L219.089 111.478L216.425 131.444L260.105 137.338L257.924 153.674L278.822 156.49L281.003 140.161L291.838 141.624L294.35 122.79ZM239.538 115.391L266.289 91.008L262.617 118.504L239.538 115.391Z" fill="#BE0D0D"/>
<path d="M272.472 155.98H272.383C272.293 155.963 272.214 155.911 272.162 155.836C272.111 155.761 272.091 155.669 272.107 155.579L288.256 67.2805C288.275 67.1918 288.327 67.1136 288.401 67.0622C288.476 67.0108 288.567 66.9901 288.657 67.0044C288.746 67.0212 288.825 67.0727 288.877 67.1477C288.929 67.2227 288.949 67.3151 288.933 67.4047L272.818 155.697C272.802 155.776 272.758 155.848 272.696 155.9C272.633 155.951 272.554 155.98 272.472 155.98Z" fill="#D2CBCB"/>
<path d="M286.759 68.7647C286.753 68.9148 286.688 69.0566 286.578 69.1589C286.468 69.2611 286.322 69.3155 286.172 69.31C286.022 69.3045 285.88 69.2396 285.778 69.1296C285.676 69.0196 285.621 68.8734 285.627 68.7233C285.632 68.5732 285.697 68.4315 285.807 68.3292C285.917 68.227 286.063 68.1726 286.213 68.1781C286.364 68.1836 286.505 68.2485 286.608 68.3585C286.71 68.4685 286.764 68.6146 286.759 68.7647Z" fill="#D2CBCB"/>
<path d="M284.461 80.7042C284.456 80.816 284.419 80.9241 284.354 81.0147C284.288 81.1054 284.197 81.1746 284.092 81.2136C283.987 81.2526 283.873 81.2596 283.764 81.2337C283.655 81.2079 283.557 81.1503 283.48 81.0684C283.404 80.9864 283.354 80.8837 283.336 80.7732C283.318 80.6628 283.334 80.5495 283.38 80.4477C283.427 80.346 283.503 80.2603 283.598 80.2015C283.693 80.1428 283.803 80.1135 283.915 80.1176C283.99 80.1202 284.063 80.1375 284.13 80.1684C284.198 80.1994 284.259 80.2434 284.31 80.2978C284.36 80.3523 284.4 80.4163 284.425 80.486C284.451 80.5557 284.463 80.6298 284.461 80.7042Z" fill="#D2CBCB"/>
<path d="M282.162 92.6642C282.16 92.7385 282.142 92.8116 282.111 92.8792C282.08 92.9469 282.036 93.0078 281.982 93.0584C281.928 93.109 281.864 93.1484 281.794 93.1743C281.724 93.2003 281.65 93.2122 281.576 93.2094C281.502 93.2076 281.429 93.1912 281.361 93.161C281.293 93.1308 281.233 93.0874 281.182 93.0335C281.131 92.9796 281.092 92.9161 281.066 92.8468C281.04 92.7775 281.028 92.7037 281.03 92.6297C281.032 92.5547 281.049 92.4809 281.079 92.4125C281.11 92.344 281.154 92.2823 281.208 92.231C281.263 92.1796 281.327 92.1396 281.397 92.1133C281.467 92.0869 281.542 92.0748 281.617 92.0775C281.767 92.0847 281.907 92.1501 282.009 92.2597C282.111 92.3694 282.166 92.5145 282.162 92.6642Z" fill="#D2CBCB"/>
<path d="M277.635 105.087C277.619 105.226 277.554 105.354 277.45 105.447C277.346 105.539 277.212 105.591 277.072 105.591C276.933 105.591 276.799 105.539 276.695 105.447C276.591 105.354 276.525 105.226 276.51 105.087C276.501 105.008 276.509 104.928 276.533 104.852C276.558 104.777 276.598 104.707 276.651 104.647C276.704 104.588 276.769 104.541 276.841 104.508C276.914 104.476 276.993 104.459 277.072 104.459C277.152 104.459 277.231 104.476 277.303 104.508C277.376 104.541 277.441 104.588 277.494 104.647C277.547 104.707 277.587 104.777 277.611 104.852C277.636 104.928 277.644 105.008 277.635 105.087Z" fill="#D2CBCB"/>
<path d="M277.559 116.524C277.557 116.598 277.54 116.672 277.51 116.74C277.479 116.808 277.435 116.869 277.381 116.92C277.326 116.971 277.262 117.01 277.192 117.036C277.121 117.061 277.047 117.073 276.972 117.069C276.86 117.065 276.752 117.028 276.662 116.962C276.571 116.896 276.502 116.805 276.463 116.701C276.424 116.596 276.417 116.482 276.443 116.373C276.469 116.264 276.526 116.165 276.608 116.089C276.69 116.013 276.793 115.963 276.903 115.945C277.014 115.927 277.127 115.942 277.229 115.989C277.33 116.035 277.416 116.111 277.475 116.206C277.534 116.301 277.563 116.412 277.559 116.524Z" fill="#D2CBCB"/>
<path d="M275.261 128.463C275.258 128.575 275.222 128.684 275.157 128.775C275.092 128.867 275.002 128.937 274.897 128.977C274.792 129.017 274.678 129.025 274.568 129C274.459 128.975 274.36 128.918 274.283 128.836C274.206 128.755 274.155 128.652 274.137 128.541C274.118 128.431 274.133 128.317 274.18 128.215C274.226 128.113 274.302 128.027 274.397 127.968C274.493 127.908 274.603 127.879 274.715 127.883C274.864 127.889 275.005 127.952 275.107 128.061C275.209 128.17 275.264 128.314 275.261 128.463Z" fill="#D2CBCB"/>
<path d="M272.962 140.404C272.957 140.554 272.892 140.697 272.783 140.8C272.673 140.904 272.527 140.96 272.376 140.956C272.301 140.953 272.228 140.936 272.161 140.905C272.093 140.874 272.032 140.83 271.982 140.776C271.931 140.721 271.892 140.657 271.866 140.587C271.84 140.518 271.828 140.444 271.831 140.369C271.833 140.295 271.85 140.222 271.88 140.154C271.911 140.086 271.954 140.025 272.009 139.974C272.063 139.923 272.126 139.883 272.196 139.857C272.265 139.831 272.339 139.818 272.414 139.821C272.488 139.823 272.561 139.84 272.629 139.87C272.697 139.901 272.758 139.944 272.809 139.999C272.86 140.053 272.9 140.116 272.926 140.186C272.952 140.255 272.965 140.329 272.962 140.404Z" fill="#D2CBCB"/>
<path d="M270.657 152.35C270.653 152.462 270.616 152.57 270.55 152.66C270.485 152.751 270.394 152.82 270.289 152.859C270.184 152.898 270.07 152.905 269.961 152.879C269.852 152.853 269.753 152.796 269.677 152.714C269.601 152.632 269.551 152.529 269.533 152.419C269.515 152.308 269.531 152.195 269.577 152.093C269.624 151.991 269.699 151.906 269.795 151.847C269.89 151.788 270 151.759 270.112 151.763C270.187 151.765 270.26 151.781 270.328 151.812C270.396 151.843 270.458 151.887 270.508 151.941C270.559 151.996 270.599 152.06 270.624 152.13C270.65 152.201 270.661 152.275 270.657 152.35Z" fill="#D2CBCB"/>
<path d="M277.069 105.399C276.991 105.399 276.916 105.373 276.855 105.324C276.795 105.275 276.754 105.206 276.738 105.13C276.727 105.086 276.726 105.04 276.734 104.995C276.742 104.95 276.758 104.907 276.782 104.868C276.807 104.83 276.839 104.797 276.876 104.77C276.913 104.744 276.955 104.726 277 104.716L278.711 104.35C278.756 104.34 278.803 104.339 278.848 104.347C278.893 104.355 278.937 104.372 278.975 104.398C279.014 104.423 279.047 104.455 279.073 104.493C279.099 104.531 279.117 104.574 279.126 104.619C279.135 104.664 279.135 104.71 279.126 104.754C279.118 104.799 279.1 104.841 279.075 104.879C279.05 104.917 279.018 104.949 278.981 104.974C278.943 105 278.901 105.018 278.856 105.027L277.145 105.392L277.069 105.399Z" fill="#D2CBCB"/>
<path d="M282.79 99.042C281.976 101.154 281.285 103.31 280.72 105.502C280.202 107.938 280.175 113.39 280.175 113.39" fill="#D2CBCB"/>
<path d="M280.175 113.735C280.083 113.732 279.996 113.693 279.932 113.628C279.868 113.562 279.831 113.475 279.83 113.383C279.83 113.162 279.871 107.862 280.389 105.433C280.95 103.222 281.642 101.047 282.459 98.9176C282.473 98.8721 282.496 98.8301 282.527 98.794C282.558 98.7578 282.595 98.7285 282.638 98.7077C282.681 98.6869 282.727 98.6751 282.775 98.6732C282.822 98.6712 282.87 98.679 282.914 98.6961C282.958 98.7133 282.998 98.7394 283.032 98.7728C283.066 98.8062 283.092 98.8462 283.11 98.8903C283.127 98.9344 283.136 98.9816 283.134 99.0291C283.133 99.0765 283.121 99.1231 283.101 99.166C282.288 101.261 281.596 103.402 281.03 105.578C280.527 107.952 280.492 113.335 280.485 113.39C280.486 113.476 280.454 113.559 280.397 113.623C280.339 113.687 280.26 113.727 280.175 113.735Z" fill="#D2CBCB"/>
<path d="M153.986 173.303C154.945 157.843 153.186 129.733 182.248 133.46C213.395 137.442 204.485 173.869 204.485 173.869L153.986 173.303Z" fill="#D2CBCB"/>
<path d="M174.042 164.013C181.048 164.013 186.727 158.333 186.727 151.328C186.727 144.322 181.048 138.643 174.042 138.643C167.036 138.643 161.357 144.322 161.357 151.328C161.357 158.333 167.036 164.013 174.042 164.013Z" fill="white"/>
<path d="M175.712 138.664C169.701 137.643 163.289 142.067 162.648 146.553L186.465 148.747C185.623 143.633 180.474 139.478 175.712 138.664Z" fill="#D2CBCB"/>
<path d="M183.753 151.01C183.58 154.329 181.772 156.931 179.715 156.821C177.659 156.71 176.126 153.943 176.264 150.609C176.402 147.276 178.245 144.688 180.302 144.798C182.359 144.909 183.918 147.697 183.753 151.01Z" fill="#D2CBCB"/>
<path d="M174.042 164.704C171.397 164.704 168.811 163.919 166.611 162.45C164.412 160.98 162.697 158.891 161.685 156.447C160.673 154.003 160.408 151.314 160.924 148.719C161.44 146.124 162.714 143.741 164.584 141.871C166.455 140 168.838 138.726 171.433 138.21C174.027 137.694 176.717 137.959 179.161 138.971C181.605 139.984 183.694 141.698 185.163 143.898C186.633 146.097 187.417 148.683 187.417 151.328C187.414 154.875 186.003 158.275 183.496 160.782C180.988 163.29 177.588 164.7 174.042 164.704ZM174.042 139.34C171.669 139.34 169.35 140.044 167.377 141.362C165.405 142.681 163.867 144.554 162.96 146.747C162.052 148.939 161.815 151.351 162.278 153.678C162.742 156.005 163.885 158.142 165.563 159.819C167.241 161.497 169.379 162.639 171.706 163.101C174.034 163.563 176.446 163.324 178.637 162.415C180.829 161.506 182.702 159.968 184.019 157.994C185.336 156.021 186.038 153.701 186.037 151.328C186.033 148.149 184.768 145.101 182.519 142.853C180.27 140.606 177.222 139.342 174.042 139.34Z" fill="#BE0D0D"/>
<path opacity="0.3" d="M200.945 172.916H200.862C200.817 172.907 200.775 172.888 200.738 172.862C200.701 172.836 200.67 172.802 200.646 172.764C200.622 172.725 200.606 172.682 200.6 172.637C200.593 172.592 200.595 172.546 200.606 172.502C200.606 172.413 202.829 163.054 200.544 153.592C200.522 153.5 200.538 153.404 200.587 153.324C200.636 153.243 200.715 153.186 200.806 153.164C200.898 153.142 200.995 153.157 201.075 153.207C201.155 153.256 201.212 153.335 201.234 153.426C203.56 163.089 201.317 172.571 201.296 172.661C201.276 172.738 201.23 172.805 201.166 172.851C201.102 172.898 201.024 172.921 200.945 172.916Z" fill="white"/>
<path opacity="0.3" d="M199.019 148.401C198.953 148.4 198.888 148.381 198.832 148.345C198.776 148.31 198.731 148.26 198.701 148.201C197.844 146.305 196.744 144.528 195.43 142.914C195.373 142.843 195.346 142.753 195.355 142.662C195.364 142.572 195.408 142.489 195.478 142.431C195.514 142.401 195.554 142.379 195.598 142.366C195.642 142.352 195.688 142.348 195.734 142.352C195.779 142.357 195.823 142.37 195.864 142.392C195.904 142.414 195.94 142.443 195.968 142.479C197.315 144.14 198.444 145.965 199.33 147.911C199.349 147.951 199.36 147.996 199.363 148.041C199.365 148.086 199.358 148.131 199.343 148.173C199.327 148.216 199.304 148.255 199.273 148.288C199.242 148.321 199.205 148.348 199.164 148.366C199.118 148.387 199.069 148.399 199.019 148.401Z" fill="white"/>
<path d="M89.3045 245.824H89.0492C88.134 245.799 87.2664 245.411 86.6374 244.745C86.0084 244.08 85.6694 243.192 85.695 242.277C85.7206 241.362 86.1088 240.494 86.774 239.865C87.4393 239.236 88.3272 238.897 89.2424 238.923H89.3045C91.2991 238.923 96.0957 236.5 106.131 220.682C106.397 220.262 106.751 219.904 107.168 219.634C107.586 219.363 108.057 219.186 108.549 219.115C109.042 219.043 109.543 219.079 110.021 219.22C110.498 219.361 110.939 219.603 111.314 219.93C119.194 226.704 127.789 232.601 136.946 237.515C137.37 237.708 137.75 237.984 138.064 238.328C138.379 238.671 138.62 239.075 138.774 239.514C138.928 239.954 138.991 240.42 138.961 240.884C138.93 241.349 138.806 241.802 138.595 242.217C138.384 242.632 138.092 243.001 137.735 243.3C137.379 243.599 136.965 243.823 136.52 243.958C136.074 244.093 135.606 244.137 135.143 244.087C134.68 244.036 134.232 243.892 133.827 243.664C125.316 239.142 117.271 233.793 109.809 227.694C101.396 240.358 95.1571 245.824 89.3045 245.824Z" fill="#D2CBCB"/>
<path d="M110.658 219.308H110.361C109.819 219.23 109.33 218.939 109.001 218.501C108.673 218.062 108.531 217.511 108.608 216.968C109.098 213.518 108.491 200.66 104.136 190.653C103.943 190.211 103.91 189.715 104.044 189.251C104.177 188.787 104.469 188.385 104.868 188.113C114.323 181.674 134.462 180.901 135.317 180.873C135.589 180.864 135.86 180.909 136.115 181.004C136.37 181.1 136.603 181.245 136.802 181.431C137 181.617 137.16 181.84 137.273 182.088C137.385 182.335 137.448 182.603 137.457 182.875C137.466 183.147 137.421 183.418 137.326 183.672C137.23 183.927 137.085 184.16 136.899 184.359C136.713 184.558 136.49 184.718 136.242 184.83C135.995 184.943 135.727 185.005 135.455 185.014C135.269 185.014 117.663 185.704 108.622 190.673C112.473 200.639 113.35 213.055 112.708 217.548C112.633 218.038 112.386 218.486 112.009 218.809C111.633 219.132 111.154 219.309 110.658 219.308Z" fill="#D2CBCB"/>
<path d="M114.136 216.63C112.756 213.38 106.545 213.746 102.908 216.534C100.961 218.018 98.3249 222.497 98.0764 224.126C97.9936 224.513 98.0059 224.914 98.1125 225.295C98.2191 225.676 98.4167 226.026 98.6883 226.314C98.9599 226.602 99.2973 226.819 99.6716 226.948C100.046 227.076 100.446 227.112 100.837 227.052C103.218 226.845 106.483 223.387 106.483 223.387C104.309 225.52 107.117 227.024 111.314 223.939C113.605 222.221 115.675 220.268 114.136 216.63Z" fill="#BE0D0D"/>
<path d="M232.844 174.214C232.812 174.221 232.779 174.221 232.747 174.214C232.703 174.202 232.662 174.181 232.626 174.153C232.59 174.125 232.56 174.09 232.538 174.05C232.517 174.01 232.503 173.966 232.498 173.921C232.494 173.875 232.499 173.829 232.512 173.786C233.43 170.584 234.431 168.63 235.749 167.574C235.543 166.832 235.581 166.043 235.86 165.325C236.181 164.486 236.749 163.764 237.488 163.254C237.287 163.037 237.145 162.772 237.073 162.485C237.002 162.198 237.005 161.897 237.081 161.611C237.331 160.747 237.848 159.984 238.558 159.431C238.302 159.144 238.162 158.773 238.165 158.388C238.165 156.318 241.967 153.198 246.281 152.605C246.372 152.592 246.465 152.616 246.539 152.672C246.613 152.727 246.662 152.81 246.674 152.902C246.687 152.993 246.663 153.086 246.607 153.16C246.552 153.234 246.469 153.282 246.378 153.295C242.278 153.854 238.841 156.822 238.855 158.388C238.853 158.622 238.942 158.847 239.103 159.017C240.032 158.387 241.076 157.949 242.176 157.727C243.275 157.505 244.408 157.505 245.508 157.726C247.627 158.133 248.489 158.582 248.393 159.224C248.2 160.431 243.693 160.687 240.67 160.328C240.128 160.279 239.601 160.126 239.117 159.879C238.466 160.342 237.982 161.003 237.737 161.763C237.678 161.964 237.678 162.178 237.738 162.379C237.798 162.58 237.915 162.759 238.075 162.895C239.359 162.205 241.16 161.957 243.541 162.481C246.667 163.171 246.785 163.551 246.861 163.779C246.885 163.859 246.887 163.945 246.866 164.026C246.846 164.108 246.803 164.182 246.743 164.241C246.088 164.931 241.291 164.607 238.882 164.013C238.592 163.947 238.311 163.842 238.047 163.703C237.334 164.136 236.786 164.794 236.488 165.573C236.288 166.077 236.233 166.627 236.329 167.16C236.452 167.087 236.578 167.02 236.708 166.96C238.137 166.27 239.863 166.394 241.995 167.305C243.375 167.906 244.066 168.444 244.135 168.989C244.138 169.129 244.103 169.267 244.033 169.389C243.964 169.51 243.863 169.611 243.741 169.679C242.685 170.37 239 170.273 237.081 169.252C236.64 169.012 236.272 168.656 236.018 168.223C234.893 169.258 233.982 171.101 233.154 173.993C233.129 174.056 233.086 174.11 233.031 174.149C232.976 174.188 232.911 174.211 232.844 174.214ZM236.584 167.775C236.776 168.132 237.069 168.424 237.426 168.617C238.986 169.445 242.05 169.631 243.196 169.169C243.431 169.072 243.465 168.996 243.465 168.996C243.465 168.996 243.431 168.61 241.74 167.885C239.807 167.057 238.289 166.94 237.026 167.526C236.874 167.6 236.726 167.683 236.584 167.775ZM238.889 163.24L239.062 163.289C241.309 163.807 243.622 163.981 245.922 163.806C245.106 163.504 244.266 163.273 243.41 163.116C241.923 162.713 240.351 162.757 238.889 163.24ZM239.759 159.362C240.078 159.476 240.409 159.55 240.746 159.582C244.197 159.99 247.226 159.513 247.647 159.079C247.53 158.975 247.068 158.678 245.356 158.354C243.43 157.97 241.43 158.33 239.759 159.362Z" fill="#D2CBCB"/>
<path d="M142.999 244.671C143.454 244.526 143.302 244.084 142.792 244.084H133.447C115.655 242.2 103.225 244.726 111.058 245.32C118.892 245.913 110.506 245.789 104.785 247.956C99.0634 250.123 147.333 250.668 151.716 247.956C155.746 245.458 136.691 246.693 142.999 244.671Z" fill="#D2CBCB"/>
<path d="M209.903 247.425L128.602 244.726L125.227 165.896L221.235 168.043L209.903 247.425Z" fill="#BE0D0D"/>
<path d="M153.986 245.914C153.899 245.915 153.815 245.882 153.751 245.823C153.687 245.764 153.648 245.683 153.641 245.597L147.126 166.422C147.12 166.331 147.15 166.241 147.209 166.171C147.269 166.102 147.353 166.058 147.443 166.049C147.534 166.045 147.623 166.076 147.692 166.135C147.762 166.193 147.806 166.276 147.816 166.367L154.366 245.542C154.37 245.587 154.364 245.633 154.35 245.676C154.336 245.719 154.314 245.759 154.285 245.794C154.255 245.829 154.219 245.857 154.178 245.878C154.138 245.898 154.094 245.911 154.048 245.914H153.986Z" fill="#D2CBCB"/>
<path d="M209.903 247.425L231.753 244.098L238.634 170.797L221.235 168.043L209.903 247.425Z" fill="#BE0D0D"/>
<path opacity="0.2" d="M209.903 247.425L231.753 244.098L238.634 170.797L221.235 168.043L209.903 247.425Z" fill="black"/>
<path d="M135.545 229.536L133.544 182.695C133.494 181.538 133.683 180.383 134.098 179.302C134.512 178.22 135.145 177.236 135.955 176.408C136.766 175.581 137.737 174.929 138.81 174.492C139.883 174.055 141.033 173.843 142.191 173.868L202.967 175.249C204.163 175.276 205.341 175.556 206.421 176.071C207.502 176.587 208.46 177.325 209.235 178.238C210.009 179.151 210.58 180.218 210.912 181.368C211.244 182.518 211.328 183.726 211.159 184.911L204.423 232.076C204.131 234.142 203.088 236.027 201.492 237.371C199.896 238.715 197.86 239.422 195.775 239.357L143.744 237.632C141.608 237.566 139.576 236.695 138.056 235.194C136.535 233.692 135.638 231.671 135.545 229.536Z" fill="#D2CBCB"/>
<path d="M142.115 188.244L151.515 188.541L151.439 190.963L145.552 190.777L145.497 192.585L150.956 192.758L150.88 195.077L145.421 194.897L145.352 197.14L151.405 197.334L151.322 199.901L141.75 199.597L142.115 188.244Z" fill="white"/>
<path d="M153.261 199.963L153.62 188.61L159.473 188.797C160.312 188.792 161.147 188.913 161.951 189.156C162.52 189.346 163.007 189.726 163.331 190.232C163.571 190.601 163.732 191.015 163.805 191.448C163.878 191.882 163.861 192.326 163.755 192.753C163.648 193.179 163.456 193.58 163.188 193.928C162.92 194.277 162.584 194.567 162.199 194.78C161.807 194.982 161.385 195.122 160.95 195.194C161.271 195.298 161.575 195.447 161.854 195.636C162.055 195.823 162.236 196.031 162.392 196.257C162.57 196.472 162.727 196.703 162.862 196.947L164.456 200.295L160.494 200.164L158.728 196.637C158.587 196.3 158.381 195.995 158.12 195.74C157.872 195.561 157.577 195.46 157.271 195.45H156.961L156.816 200.053L153.261 199.963ZM157.002 193.324L158.479 193.372C158.793 193.353 159.104 193.31 159.411 193.241C159.642 193.206 159.851 193.085 159.997 192.903C160.147 192.719 160.232 192.491 160.239 192.254C160.252 192.097 160.23 191.938 160.174 191.79C160.118 191.642 160.029 191.508 159.915 191.399C159.53 191.15 159.075 191.031 158.617 191.06L157.071 191.012L157.002 193.324Z" fill="white"/>
<path d="M165.601 200.33L165.96 188.977L171.806 189.163C172.645 189.158 173.48 189.279 174.284 189.522C174.854 189.71 175.342 190.091 175.664 190.598C176.014 191.151 176.179 191.802 176.133 192.455C176.135 193.006 175.988 193.547 175.707 194.021C175.427 194.495 175.023 194.884 174.539 195.147C174.146 195.347 173.725 195.487 173.29 195.561C173.609 195.664 173.911 195.812 174.187 196.002C174.393 196.184 174.576 196.39 174.732 196.617C174.909 196.832 175.066 197.063 175.202 197.307L176.796 200.647L172.834 200.523L171.068 196.996C170.926 196.66 170.72 196.355 170.46 196.099C170.214 195.913 169.913 195.811 169.604 195.809H169.301L169.149 200.419L165.601 200.33ZM169.335 193.69L170.819 193.732C171.133 193.72 171.445 193.678 171.751 193.608C171.98 193.573 172.188 193.452 172.331 193.269C172.485 193.088 172.571 192.859 172.572 192.621C172.587 192.463 172.566 192.305 172.511 192.156C172.456 192.008 172.369 191.874 172.255 191.765C171.87 191.51 171.411 191.391 170.95 191.427L169.411 191.378L169.335 193.69Z" fill="white"/>
<path d="M177.362 195.056C177.309 194.263 177.431 193.469 177.722 192.73C178.012 191.991 178.462 191.325 179.04 190.781C179.618 190.236 180.309 189.827 181.065 189.581C181.82 189.336 182.62 189.261 183.408 189.362C184.202 189.335 184.994 189.469 185.737 189.755C186.479 190.041 187.156 190.472 187.728 191.025C188.238 191.613 188.624 192.298 188.861 193.04C189.099 193.781 189.183 194.563 189.108 195.339C189.114 196.466 188.849 197.578 188.335 198.582C187.87 199.404 187.174 200.071 186.334 200.501C185.343 200.974 184.247 201.184 183.152 201.108C182.06 201.117 180.98 200.882 179.991 200.418C179.15 199.961 178.462 199.265 178.017 198.417C177.496 197.377 177.269 196.215 177.362 195.056ZM180.868 195.18C180.764 196.05 180.962 196.929 181.427 197.671C181.644 197.914 181.909 198.111 182.204 198.249C182.499 198.388 182.819 198.466 183.145 198.478C183.471 198.49 183.796 198.437 184.101 198.321C184.406 198.204 184.684 198.028 184.919 197.802C185.431 197.028 185.673 196.106 185.609 195.18C185.702 194.348 185.499 193.51 185.036 192.813C184.827 192.571 184.568 192.378 184.278 192.246C183.987 192.114 183.672 192.046 183.352 192.046C183.03 192.023 182.707 192.073 182.407 192.193C182.107 192.312 181.838 192.498 181.62 192.737C181.097 193.441 180.832 194.303 180.868 195.18Z" fill="white"/>
<path d="M190.882 201.165L191.241 189.805L197.086 189.991C197.925 189.99 198.76 190.111 199.564 190.35C200.132 190.544 200.618 190.923 200.944 191.427C201.293 191.98 201.457 192.63 201.414 193.283C201.417 193.835 201.27 194.378 200.99 194.853C200.709 195.328 200.305 195.718 199.82 195.982C199.425 196.177 199.004 196.314 198.57 196.389C198.89 196.494 199.192 196.645 199.468 196.837C199.674 197.019 199.857 197.225 200.013 197.452C200.191 197.666 200.348 197.898 200.482 198.142L202.076 201.489L198.115 201.365L196.348 197.831C196.207 197.497 196.001 197.194 195.741 196.941C195.493 196.756 195.194 196.652 194.885 196.644H194.581L194.429 201.254L190.882 201.165ZM194.616 194.518L196.1 194.567C196.413 194.555 196.725 194.513 197.031 194.443C197.26 194.406 197.466 194.285 197.611 194.104C197.774 193.912 197.86 193.666 197.853 193.414C197.867 193.258 197.847 193.1 197.792 192.953C197.737 192.806 197.649 192.673 197.535 192.565C197.15 192.31 196.691 192.191 196.231 192.227L194.692 192.179L194.616 194.518Z" fill="white"/>
<path d="M196.465 220.455C196.336 220.458 196.207 220.432 196.088 220.381C195.969 220.33 195.863 220.254 195.775 220.158L189.867 213.692L183.49 219.517C183.314 219.678 183.08 219.764 182.841 219.753C182.601 219.743 182.376 219.638 182.214 219.461L176.306 212.995L169.929 218.819C169.752 218.981 169.518 219.066 169.279 219.056C169.04 219.046 168.814 218.941 168.652 218.764L162.737 212.297L156.367 218.122C156.274 218.207 156.165 218.271 156.046 218.311C155.928 218.352 155.802 218.367 155.677 218.357C155.437 218.343 155.212 218.236 155.049 218.06L149.141 211.6L142.771 217.418C142.593 217.581 142.358 217.666 142.118 217.656C141.877 217.645 141.651 217.54 141.487 217.363C141.407 217.276 141.344 217.173 141.304 217.061C141.263 216.949 141.245 216.831 141.251 216.712C141.257 216.593 141.286 216.477 141.338 216.369C141.389 216.262 141.461 216.166 141.549 216.086L148.589 209.647C148.767 209.485 149.002 209.4 149.242 209.41C149.483 209.42 149.71 209.526 149.873 209.702L155.781 216.169L162.151 210.344C162.331 210.186 162.566 210.102 162.806 210.11C163.047 210.123 163.272 210.229 163.434 210.406L169.342 216.873L175.719 211.048C175.806 210.967 175.909 210.904 176.02 210.863C176.132 210.822 176.25 210.804 176.369 210.809C176.488 210.814 176.605 210.843 176.712 210.893C176.82 210.944 176.916 211.015 176.996 211.103L182.904 217.57L189.281 211.745C189.458 211.583 189.691 211.498 189.931 211.509C190.17 211.519 190.396 211.624 190.558 211.801L197.156 218.964C197.273 219.096 197.35 219.259 197.377 219.434C197.404 219.609 197.379 219.788 197.306 219.949C197.233 220.11 197.114 220.246 196.965 220.341C196.816 220.436 196.642 220.485 196.465 220.483V220.455Z" fill="white"/>
<path d="M87.2479 249.103L82.9275 247.039L79.0764 228.287L81.1676 225.989L87.2479 249.103Z" fill="#BE0D0D"/>
<path d="M87.2479 249.103L92.9831 245.748L88.0692 230.303L81.1676 225.989L87.2479 249.103Z" fill="#BE0D0D"/>
<path opacity="0.2" d="M87.2479 249.103L92.9831 245.748L88.0692 230.303L81.1676 225.989L87.2479 249.103Z" fill="black"/>
<path d="M181.282 252.512H180.806C179.89 252.487 179.023 252.1 178.393 251.435C177.763 250.771 177.423 249.883 177.448 248.968C177.473 248.053 177.86 247.185 178.525 246.555C179.189 245.926 180.077 245.586 180.992 245.61C186.306 245.783 197.556 242.519 203.988 236.279C204.376 235.898 204.849 235.615 205.368 235.451C216.266 232.18 220.317 238.785 220.483 239.068L214.548 242.581C214.568 242.625 214.594 242.666 214.623 242.705C214.561 242.615 213.015 240.634 208.101 241.849C200.033 249.206 187.652 252.512 181.282 252.512Z" fill="#D2CBCB"/>
<path d="M180.861 257.094L168.293 256.307L167.306 233.132L184.194 233.76L180.861 257.094Z" fill="#BE0D0D"/>
<path d="M180.861 257.095L183.801 254.169L185.623 239.724L184.194 233.761L180.861 257.095Z" fill="#BE0D0D"/>
<path opacity="0.2" d="M180.861 257.095L183.801 254.169L185.623 239.724L184.194 233.761L180.861 257.095Z" fill="black"/>
<path d="M253.686 248.323C253.235 248.322 252.797 248.174 252.437 247.902C245.26 242.449 235.563 232.766 231.843 223.429C231.787 223.294 231.748 223.152 231.726 223.008C229.91 212.214 228.178 189.5 228.102 188.541C228.082 188.269 228.115 187.996 228.2 187.737C228.286 187.478 228.421 187.238 228.599 187.032C228.958 186.614 229.468 186.357 230.017 186.315C230.567 186.274 231.11 186.453 231.527 186.812C231.944 187.171 232.202 187.681 232.243 188.231C232.243 188.458 234.017 211.392 235.784 222.097C239.497 231.179 249.587 240.503 254.956 244.603C255.302 244.865 255.557 245.229 255.684 245.644C255.811 246.059 255.805 246.503 255.667 246.915C255.528 247.326 255.263 247.683 254.91 247.936C254.557 248.188 254.134 248.324 253.7 248.323H253.686Z" fill="#D2CBCB"/>
<path d="M263.259 249.365C261.658 249.365 259.843 248.64 257.862 247.212C257.417 246.89 257.118 246.404 257.032 245.862C256.945 245.319 257.077 244.765 257.399 244.32C257.722 243.875 258.207 243.577 258.75 243.49C259.292 243.403 259.846 243.535 260.291 243.858C262.003 245.093 262.934 245.238 263.259 245.238C263.808 245.238 264.335 245.456 264.723 245.844C265.111 246.233 265.329 246.759 265.329 247.308C265.329 247.857 265.111 248.384 264.723 248.772C264.335 249.161 263.808 249.379 263.259 249.379V249.365Z" fill="#D2CBCB"/>
<path d="M258.442 247.15C260.657 240.573 269.739 241.871 272.873 242.851C275.549 243.627 278.116 244.741 280.513 246.163C282.204 247.268 282.231 249.124 279.974 250.18C277.214 251.478 270.202 250.325 270.202 250.325C273.818 251.905 270.202 254.466 263.846 251.954C261.782 251.139 257.662 249.566 258.442 247.15Z" fill="#BE0D0D"/>
<path d="M236.398 191.358C235.577 196.948 230.946 201.069 227.177 200.516C223.409 199.964 223.257 194.995 224.079 189.377C224.9 183.759 226.391 179.715 230.159 180.267C233.927 180.819 237.219 185.788 236.398 191.358Z" fill="#D2CBCB"/>
<path d="M145.311 169.064C145.623 169.064 145.877 168.811 145.877 168.499C145.877 168.186 145.623 167.933 145.311 167.933C144.998 167.933 144.745 168.186 144.745 168.499C144.745 168.811 144.998 169.064 145.311 169.064Z" fill="#D2CBCB"/>
<path d="M151.06 172.571C151.06 172.683 151.027 172.792 150.964 172.885C150.902 172.978 150.814 173.051 150.711 173.094C150.607 173.136 150.493 173.148 150.384 173.126C150.274 173.104 150.173 173.05 150.094 172.971C150.015 172.892 149.961 172.791 149.939 172.681C149.917 172.571 149.928 172.458 149.971 172.354C150.014 172.251 150.086 172.162 150.18 172.1C150.273 172.038 150.382 172.005 150.494 172.005C150.644 172.005 150.788 172.065 150.894 172.171C151 172.277 151.06 172.421 151.06 172.571Z" fill="#D2CBCB"/>
<path d="M151.695 239.448C151.695 239.56 151.662 239.669 151.599 239.762C151.537 239.855 151.449 239.928 151.345 239.971C151.242 240.013 151.128 240.025 151.018 240.003C150.909 239.981 150.808 239.927 150.729 239.848C150.65 239.769 150.596 239.668 150.574 239.558C150.552 239.448 150.563 239.335 150.606 239.231C150.649 239.128 150.721 239.039 150.814 238.977C150.908 238.915 151.017 238.882 151.129 238.882C151.279 238.882 151.423 238.941 151.529 239.048C151.635 239.154 151.695 239.298 151.695 239.448Z" fill="#D2CBCB"/>
<path d="M156.878 243.526C156.878 243.638 156.845 243.747 156.783 243.84C156.72 243.933 156.632 244.006 156.529 244.049C156.425 244.092 156.311 244.103 156.202 244.081C156.092 244.059 155.991 244.005 155.912 243.926C155.833 243.847 155.779 243.746 155.757 243.636C155.735 243.527 155.746 243.413 155.789 243.309C155.832 243.206 155.904 243.118 155.998 243.055C156.091 242.993 156.2 242.96 156.312 242.96C156.462 242.96 156.606 243.02 156.712 243.126C156.818 243.232 156.878 243.376 156.878 243.526Z" fill="#D2CBCB"/>
<path d="M57.4054 250.311C56.4119 250.264 55.4414 249.995 54.5658 249.523C53.6902 249.051 52.9317 248.389 52.3466 247.584C52.3179 247.547 52.297 247.505 52.2853 247.46C52.2735 247.414 52.2711 247.367 52.2782 247.321C52.2853 247.274 52.3017 247.23 52.3265 247.19C52.3513 247.151 52.3839 247.116 52.4224 247.09C52.4608 247.063 52.5043 247.044 52.5502 247.035C52.596 247.026 52.6433 247.026 52.6892 247.035C52.7351 247.045 52.7785 247.063 52.8169 247.09C52.8553 247.117 52.8878 247.151 52.9125 247.191C54.2031 249.054 57.0535 250.041 58.2957 249.455C58.4202 249.402 58.531 249.322 58.6201 249.22C57.9924 248.944 57.4424 248.517 57.0187 247.978C56.595 247.439 56.3106 246.803 56.1908 246.128C56.032 245.252 55.9078 244.058 56.6256 243.906C57.6194 243.685 58.9169 246.08 59.3862 247.895C59.4712 248.195 59.5016 248.509 59.4759 248.82C59.874 248.938 60.2927 248.971 60.7044 248.916C60.8899 248.902 61.0704 248.849 61.2344 248.761C61.3984 248.673 61.5423 248.552 61.6568 248.406C61.2026 248.063 60.8258 247.628 60.5511 247.13C60.2764 246.632 60.1099 246.081 60.0625 245.514C59.8003 243.623 60.0004 243.299 60.2075 243.133C60.2746 243.081 60.3546 243.05 60.4387 243.041C60.5228 243.033 60.6076 243.048 60.6837 243.085C61.4222 243.395 62.3125 246.073 62.485 247.591C62.5057 247.749 62.5057 247.909 62.485 248.068C62.7825 248.182 63.098 248.243 63.4167 248.247C64.0019 248.27 64.5808 248.118 65.08 247.812C64.9834 247.75 64.8937 247.681 64.8039 247.612C64.1138 246.998 63.7963 246.018 63.9205 244.624C64.0172 243.54 64.2587 242.947 64.6935 242.76C64.8338 242.704 64.9874 242.69 65.1357 242.719C65.2839 242.748 65.4204 242.82 65.5286 242.926C65.9945 243.44 66.3426 244.05 66.5488 244.713C66.755 245.375 66.8143 246.075 66.7226 246.763C66.6627 247.05 66.5427 247.32 66.3706 247.557C67.6405 247.778 69.4211 247.419 70.9601 247.039C71.0055 247.028 71.0525 247.026 71.0985 247.034C71.1445 247.041 71.1887 247.057 71.2284 247.082C71.2681 247.106 71.3027 247.138 71.3301 247.176C71.3575 247.213 71.3772 247.256 71.388 247.301C71.3989 247.347 71.4008 247.394 71.3935 247.44C71.3862 247.486 71.3699 247.53 71.3455 247.57C71.3212 247.609 71.2892 247.644 71.2515 247.671C71.2138 247.699 71.1711 247.718 71.1258 247.729C69.2555 248.192 67.2402 248.571 65.8185 248.157C65.1245 248.685 64.2746 248.966 63.4029 248.958C63.0161 248.953 62.6331 248.88 62.2711 248.744C62.1105 248.992 61.8951 249.2 61.6414 249.352C61.3878 249.504 61.1026 249.596 60.8079 249.62C60.2891 249.687 59.7621 249.642 59.262 249.489C59.1009 249.76 58.8598 249.975 58.5718 250.103C58.2016 250.253 57.8044 250.323 57.4054 250.311ZM56.8119 244.596C56.7164 245.065 56.7354 245.551 56.8671 246.011C56.9645 246.563 57.1935 247.083 57.5347 247.527C57.8759 247.972 58.3192 248.328 58.8272 248.564C58.8175 248.401 58.7897 248.239 58.7443 248.081C58.206 246.107 57.1708 244.748 56.8119 244.596ZM60.6561 243.996C60.6606 244.472 60.6998 244.947 60.7734 245.417C60.8495 246.259 61.2212 247.046 61.8225 247.64C61.6526 246.365 61.2577 245.132 60.6561 243.996ZM64.9972 243.395C64.9972 243.395 64.7349 243.526 64.6383 244.679C64.5417 245.831 64.7418 246.625 65.2801 247.087C65.4075 247.191 65.5465 247.279 65.6942 247.35C65.8757 247.156 66.0041 246.918 66.0669 246.66C66.1899 245.573 65.8964 244.481 65.2456 243.602C65.1007 243.423 65.0179 243.395 64.9972 243.395Z" fill="#D2CBCB"/>
<path d="M158.417 255.528L160.287 252.284L158.417 249.04H156.416L157.547 252.284L156.416 255.528H158.417Z" fill="#D2CBCB"/>
<path d="M156.547 253.976C156.316 253.99 156.085 253.958 155.867 253.88C155.65 253.801 155.45 253.68 155.282 253.521C155.113 253.363 154.979 253.172 154.887 252.96C154.795 252.748 154.748 252.519 154.748 252.288C154.748 252.057 154.795 251.828 154.887 251.616C154.979 251.404 155.113 251.213 155.282 251.055C155.45 250.897 155.65 250.775 155.867 250.697C156.085 250.619 156.316 250.586 156.547 250.601L153.372 249.966L152.523 252.533L153.945 254.7L156.547 253.976Z" fill="#D2CBCB"/>
<path d="M156.823 249.04H153.075L151.205 252.284L153.075 255.528H156.823L158.693 252.284L156.823 249.04ZM154.952 253.975C154.618 253.976 154.29 253.878 154.011 253.693C153.732 253.508 153.514 253.245 153.385 252.936C153.256 252.627 153.222 252.287 153.286 251.958C153.351 251.63 153.511 251.328 153.747 251.091C153.984 250.853 154.285 250.692 154.613 250.626C154.941 250.56 155.282 250.593 155.591 250.721C155.9 250.849 156.165 251.065 156.351 251.344C156.537 251.622 156.636 251.949 156.636 252.284C156.636 252.731 156.459 253.16 156.144 253.477C155.828 253.794 155.4 253.973 154.952 253.975Z" fill="#BE0D0D"/>
<path d="M288.871 248.819L287.483 246.411L288.871 244.002H290.355L289.519 246.411L290.355 248.819H288.871Z" fill="#BE0D0D"/>
<path d="M290.258 247.667C290.43 247.68 290.603 247.657 290.766 247.6C290.929 247.543 291.079 247.452 291.206 247.335C291.332 247.217 291.433 247.075 291.502 246.916C291.571 246.758 291.607 246.587 291.607 246.414C291.607 246.242 291.571 246.071 291.502 245.912C291.433 245.754 291.332 245.611 291.206 245.494C291.079 245.376 290.929 245.286 290.766 245.229C290.603 245.172 290.43 245.149 290.258 245.162L292.618 244.692L293.246 246.597L292.197 248.205L290.258 247.667Z" fill="#BE0D0D"/>
<path d="M290.058 244.002H292.818L294.199 246.411L292.818 248.819H290.058L288.677 246.411L290.058 244.002ZM291.438 247.667C291.687 247.668 291.93 247.596 292.138 247.458C292.345 247.321 292.507 247.125 292.603 246.896C292.7 246.667 292.725 246.414 292.678 246.17C292.63 245.926 292.511 245.701 292.336 245.525C292.16 245.349 291.936 245.228 291.693 245.179C291.449 245.13 291.196 245.155 290.966 245.249C290.736 245.344 290.539 245.505 290.401 245.712C290.263 245.919 290.189 246.162 290.189 246.411C290.188 246.576 290.22 246.74 290.283 246.892C290.345 247.045 290.438 247.184 290.555 247.301C290.672 247.418 290.81 247.51 290.963 247.573C291.116 247.636 291.28 247.668 291.445 247.667H291.438Z" fill="#D2CBCB"/>
<path d="M237.185 252.021H240.304C240.695 252.019 241.069 251.863 241.344 251.586C241.62 251.309 241.774 250.935 241.774 250.544C241.774 250.154 241.62 249.779 241.344 249.502C241.069 249.226 240.695 249.069 240.304 249.067H237.185C236.793 249.067 236.417 249.223 236.14 249.5C235.863 249.777 235.708 250.153 235.708 250.544C235.708 250.936 235.863 251.312 236.14 251.589C236.417 251.866 236.793 252.021 237.185 252.021Z" fill="#D2CBCB"/>
<path d="M232.167 249.234C232.457 248.707 232.894 248.277 233.425 247.996C233.956 247.715 234.558 247.596 235.156 247.653C235.754 247.709 236.323 247.94 236.791 248.316C237.26 248.692 237.608 249.197 237.793 249.769C237.978 250.341 237.992 250.954 237.832 251.533C237.673 252.113 237.348 252.633 236.896 253.029C236.445 253.426 235.887 253.682 235.292 253.765C234.697 253.849 234.091 253.756 233.548 253.499C232.801 253.114 232.237 252.45 231.979 251.651C231.72 250.852 231.788 249.983 232.167 249.234Z" fill="#BE0D0D"/>
<path d="M233.009 253.498L233.864 253.901L236.837 247.596L235.981 247.193L233.009 253.498Z" fill="#D2CBCB"/>
</svg>
